<svg xmlns="http://www.w3.org/2000/svg" viewBox="0 0 64 64">
  <rect width="64" height="64" rx="14" fill="#0d2148"/>
  <rect x="14" y="14" width="36" height="36" rx="8" fill="#1f5cff"/>
  <path
    d="M26.8 28h10.4v4.1h-3.1v10h-4.2v-10h-3.1ZM43.8 39.2c0 3.2-2.5 5.3-6.3 5.3-2.3 0-4.5-.7-6.1-2l2-3.2c1.2 1 2.7 1.6 4.1 1.6 1.4 0 2-.5 2-.9 0-.7-.9-.9-2.8-1.4-3.1-.7-4.7-1.9-4.7-4.6 0-3 2.4-5 6-5 2 0 4 .6 5.5 1.8l-1.9 3.3c-1.1-.8-2.2-1.2-3.4-1.2-.9 0-1.7.3-1.7.9 0 .6.9.9 2.9 1.4 3 .7 4.5 2 4.5 4.8Z"
    fill="#e8f9ff"
  />
</svg>

